# xmcd CD database file
#
# Track frame offsets:
#	150
#	26784
#	49080
#	69455
#	104205
#	118312
#	144591
#	165562
#	188455
#	237199
#
# Disc length: 4436 seconds
#
# Revision: 0
# Processed by: cddbd v1.5.2PL0 Copyright (c) Steve Scherf et al.
# Submitted via: CDex 1.51
#
DISCID=8e11520a
DTITLE=Anders Paulsson - Danjugan Sanctuary
DYEAR=1900
DGENRE=Jazz
TTITLE0=Dance to life
TTITLE1=Danjugan sanctuary
TTITLE2=Prozac blues
TTITLE3=Woodsology
TTITLE4=Deep Water interlude
TTITLE5=Sanna Ogonblick
TTITLE6=Gokens Rungdang
TTITLE7=Harry's Song
TTITLE8=Sawatch creek
TTITLE9=Data
EXTD=
EXTT0=
EXTT1=
EXTT2=
EXTT3=
EXTT4=
EXTT5=
EXTT6=
EXTT7=
EXTT8=
EXTT9=
PLAYORDER=
